<svg width="24" height="24" viewBox="0 0 24 24" fill="none" xmlns="http://www.w3.org/2000/svg">
<g id="icon2" opacity="0.4">
<path id="Union" fill-rule="evenodd" clip-rule="evenodd" d="M7 4.75H19.5C19.6381 4.75 19.75 4.86193 19.75 5V19.5529C19.3129 19.2307 18.7099 19.2588 18.3047 19.6203L17.9143 19.9685L21.25 23V5C21.25 4.0335 20.4665 3.25 19.5 3.25H5.5C5.5 4.07843 6.17157 4.75 7 4.75ZM7 19L3 22.5V7.5C3 6.94772 3.44772 6.5 4 6.5H17C17.5523 6.5 18 6.94772 18 7.5V18C18 18.5523 17.5523 19 17 19H7ZM15 10.5C15 11.6046 14.1046 12.5 13 12.5H8C6.89543 12.5 6 11.6046 6 10.5H15Z" fill="#040B29"/>
</g>
</svg>
