<svg width="24" height="24" viewBox="0 0 24 24" fill="none" xmlns="http://www.w3.org/2000/svg">
<g id="icon3">
<path id="&#229;&#189;&#162;&#231;&#138;&#182;&#231;&#187;&#147;&#229;&#144;&#136;" fill-rule="evenodd" clip-rule="evenodd" d="M7 3H6V5H2.95238C2.4264 5 2 5.4264 2 5.95238V20.0476C2 20.5736 2.4264 21 2.95238 21H21.0476C21.5736 21 22 20.5736 22 20.0476V5.95238C22 5.4264 21.5736 5 21.0476 5H18V4C18 3.44772 17.5523 3 17 3H16V5H8V4C8 3.44772 7.55228 3 7 3ZM10.6265 8C10.3741 8 10.1694 8.20467 10.1694 8.45714V10.7107C10.1694 10.9632 10.3741 11.1678 10.6265 11.1678H12.9104C13.1629 11.1678 13.3675 10.9632 13.3675 10.7107V8.45714C13.3675 8.20467 13.1629 8 12.9104 8H10.6265ZM15.796 8C15.5435 8 15.3388 8.20467 15.3388 8.45714V10.7107C15.3388 10.9632 15.5435 11.1678 15.796 11.1678H18.0798C18.3323 11.1678 18.5369 10.9632 18.5369 10.7107V8.45714C18.5369 8.20467 18.3323 8 18.0798 8H15.796ZM10.1694 14.0975C10.1694 13.845 10.3741 13.6404 10.6265 13.6404H12.9104C13.1629 13.6404 13.3675 13.845 13.3675 14.0975V16.351C13.3675 16.6035 13.1629 16.8082 12.9104 16.8082H10.6265C10.3741 16.8082 10.1694 16.6035 10.1694 16.351V14.0975ZM5.45714 13.6404C5.20467 13.6404 5 13.845 5 14.0975V16.351C5 16.6035 5.20467 16.8082 5.45714 16.8082H7.74099C7.99346 16.8082 8.19813 16.6035 8.19813 16.351V14.0975C8.19813 13.845 7.99346 13.6404 7.74099 13.6404H5.45714ZM15.3388 14.0975C15.3388 13.845 15.5435 13.6404 15.796 13.6404H18.0798C18.3323 13.6404 18.5369 13.845 18.5369 14.0975V16.351C18.5369 16.6035 18.3323 16.8082 18.0798 16.8082H15.796C15.5435 16.8082 15.3388 16.6035 15.3388 16.351V14.0975Z" fill="#040B29"/>
</g>
</svg>
