<svg width="24" height="24" viewBox="0 0 24 24" fill="none" xmlns="http://www.w3.org/2000/svg">
<path fill-rule="evenodd" clip-rule="evenodd" d="M2.19995 2.3999C1.64767 2.3999 1.19995 2.84762 1.19995 3.3999V6.1999C1.19995 6.75219 1.64767 7.1999 2.19995 7.1999H2.88042V19.1999C2.88042 19.5975 3.20278 19.9199 3.60042 19.9199H12V20.5999C12 21.1522 12.4477 21.5999 13 21.5999H21.8C22.3522 21.5999 22.7999 21.1522 22.7999 20.5999V17.7999C22.7999 17.2476 22.3522 16.7999 21.7999 16.7999H13C12.4477 16.7999 12 17.2476 12 17.7999V18.4799H4.32042V12.7204H12V13.3999C12 13.9522 12.4477 14.3999 13 14.3999H21.8C22.3522 14.3999 22.7999 13.9522 22.7999 13.3999V10.5999C22.7999 10.0476 22.3522 9.5999 21.7999 9.5999H13C12.4477 9.5999 12 10.0476 12 10.5999V11.2804H4.32042V7.1999H4.99995C5.55224 7.1999 5.99995 6.75219 5.99995 6.1999V3.3999C5.99995 2.84762 5.55224 2.3999 4.99995 2.3999H2.19995ZM8.19995 2.3999C7.64767 2.3999 7.19995 2.84762 7.19995 3.3999V6.1999C7.19995 6.75219 7.64767 7.1999 8.19995 7.1999H21.7999C22.3522 7.1999 22.7999 6.75219 22.7999 6.1999V3.3999C22.7999 2.84762 22.3522 2.3999 21.7999 2.3999H8.19995Z" fill="#363C54"/>
</svg>
