<svg width="24" height="24" viewBox="0 0 24 24" fill="none" xmlns="http://www.w3.org/2000/svg">
<g id="icon_refresh">
<g id="Union">
<path d="M20.2085 17.7129L18.3848 14.0732H20.3534C20.5191 13.403 20.6047 12.7081 20.6047 12.0001C20.6047 7.24787 16.7522 3.39544 12 3.39544C10.3551 3.39544 8.78305 3.85818 7.43269 4.7059C6.76602 5.12441 5.90342 5.09282 5.38231 4.50287C7.19658 2.9003 9.52933 2.00009 12 2.00009C17.5228 2.00009 22 6.47724 22 12.0001C22 14.0712 21.3682 16.0495 20.2085 17.7129Z" fill="#040B29"/>
<path d="M3.79149 6.28712L5.61521 9.92683H3.64657C3.48093 10.597 3.39535 11.2919 3.39535 11.9999C3.39535 16.7522 7.24778 20.6046 12 20.6046C13.6449 20.6046 15.2169 20.1419 16.5673 19.2941C17.234 18.8756 18.0966 18.9072 18.6177 19.4972C16.8034 21.0997 14.4707 21.9999 12 21.9999C6.47715 21.9999 2 17.5228 2 11.9999C2 9.92883 2.63181 7.95054 3.79149 6.28712Z" fill="#040B29"/>
</g>
</g>
</svg>
