<svg width="24" height="24" viewBox="0 0 24 24" fill="none" xmlns="http://www.w3.org/2000/svg">
<g id="icon_assign">
<g id="Union">
<path fill-rule="evenodd" clip-rule="evenodd" d="M6 6.5C6 9.26142 8.23858 11.5 11 11.5C13.7614 11.5 16 9.26142 16 6.5C16 3.73858 13.7614 1.5 11 1.5C8.23858 1.5 6 3.73858 6 6.5ZM14.5 6.5C14.5 8.433 12.933 10 11 10C9.067 10 7.5 8.433 7.5 6.5C7.5 4.567 9.067 3 11 3C12.933 3 14.5 4.567 14.5 6.5Z" fill="#040B29"/>
<path d="M7.5 14.5H12C12.8284 14.5 13.5 13.8284 13.5 13H7.5C4.18629 13 1.5 15.6863 1.5 19V20.75C1.5 21.1642 1.83579 21.5 2.25 21.5H13.5C13.5 20.6716 12.8284 20 12 20H3V19C3 16.5147 5.01472 14.5 7.5 14.5Z" fill="#040B29"/>
<path d="M22.2717 16.7413L18.5303 13C17.9445 13.5858 17.9445 14.5355 18.5303 15.1213L19.9392 16.5302H13.5C13.5 17.3586 14.1716 18.0302 15 18.0302L19.9392 18.0303L18.5303 19.4392C17.9445 20.025 17.9445 20.9748 18.5303 21.5605L22.2717 17.8192C22.344 17.7492 22.4028 17.6641 22.4429 17.5673C22.4814 17.4745 22.5001 17.377 22.5 17.2803C22.5001 17.1836 22.4814 17.0861 22.4429 16.9932C22.4028 16.8965 22.344 16.8113 22.2717 16.7413Z" fill="#040B29"/>
</g>
</g>
</svg>
