<svg width="32" height="32" viewBox="0 0 32 32" fill="none" xmlns="http://www.w3.org/2000/svg">
<circle id="&#230;&#164;&#173;&#229;&#156;&#134;&#229;&#189;&#162; copy&#229;&#164;&#135;&#228;&#187;&#189;" cx="16" cy="16" r="16" fill="#CDCED4"/>
<g id="Mask Group">
<mask id="mask0_29_35" style="mask-type:alpha" maskUnits="userSpaceOnUse" x="0" y="0" width="32" height="32">
<circle id="&#230;&#164;&#173;&#229;&#156;&#134;&#229;&#189;&#162; copy&#229;&#164;&#135;&#228;&#187;&#189;" cx="16" cy="16" r="16" fill="white"/>
</mask>
<g mask="url(#mask0_29_35)">
<g id="&#231;&#188;&#150;&#231;&#187;&#132;">
<g id="Fill 3">
<path fill-rule="evenodd" clip-rule="evenodd" d="M20.6847 24.8429L20.4402 24.5983C20.0716 24.2394 19.8685 24.0419 19.7969 23.507V21.6401C20.4443 20.8849 20.8544 19.8796 21.2562 18.5541C21.8006 18.3456 22.3422 17.6569 22.514 16.8899C22.6968 16.0622 22.6099 15.3677 22.2956 14.9816C23.1835 11.6168 23.0471 8.74214 21.9159 7.23892C21.3208 6.44753 20.4553 6.02829 19.4125 6.02768C19.3164 5.9489 19.2534 5.86258 19.1739 5.75431C18.7668 5.19604 18.3328 4.79999 16.4474 4.79999L16.2451 4.80118C13.9802 4.80118 12.263 5.48523 11.1415 6.83573C9.70318 8.56483 9.29569 11.3232 9.92636 15.038C9.65534 15.4261 9.57233 16.0768 9.71795 16.8486C9.85474 17.5695 10.3087 18.2228 10.8183 18.4913C11.3139 19.9374 11.8305 20.942 12.4235 21.6157C12.4575 22.711 12.4687 23.3929 12.4257 23.6269C12.3625 23.9667 12.1803 24.2789 11.8506 24.6088C11.5419 24.9182 11.1296 25.1448 10.2741 25.4864C8.20929 26.0571 6.45894 26.8556 5.33319 27.9085C8.14567 30.5552 11.9269 32.1791 16.0884 32.1791C20.25 32.1791 24.0312 30.5552 26.8436 27.9084C25.7288 26.8654 24.0066 26.0769 22.0315 25.5298C21.1186 25.126 20.9151 25.0269 20.6847 24.8429Z" fill="white"/>
<path fill-rule="evenodd" clip-rule="evenodd" d="M20.6847 24.8429L20.4402 24.5983C20.0716 24.2394 19.8685 24.0419 19.7969 23.507V21.6401C20.4443 20.8849 20.8544 19.8796 21.2562 18.5541C21.8006 18.3456 22.3422 17.6569 22.514 16.8899C22.6968 16.0622 22.6099 15.3677 22.2956 14.9816C23.1835 11.6168 23.0471 8.74214 21.9159 7.23892C21.3208 6.44753 20.4553 6.02829 19.4125 6.02768C19.3164 5.9489 19.2534 5.86258 19.1739 5.75431C18.7668 5.19604 18.3328 4.79999 16.4474 4.79999L16.2451 4.80118C13.9802 4.80118 12.263 5.48523 11.1415 6.83573C9.70318 8.56483 9.29569 11.3232 9.92636 15.038C9.65534 15.4261 9.57233 16.0768 9.71795 16.8486C9.85474 17.5695 10.3087 18.2228 10.8183 18.4913C11.3139 19.9374 11.8305 20.942 12.4235 21.6157C12.4575 22.711 12.4687 23.3929 12.4257 23.6269C12.3625 23.9667 12.1803 24.2789 11.8506 24.6088C11.5419 24.9182 11.1296 25.1448 10.2741 25.4864C8.20929 26.0571 6.45894 26.8556 5.33319 27.9085C8.14567 30.5552 11.9269 32.1791 16.0884 32.1791C20.25 32.1791 24.0312 30.5552 26.8436 27.9084C25.7288 26.8654 24.0066 26.0769 22.0315 25.5298C21.1186 25.126 20.9151 25.0269 20.6847 24.8429Z" fill="url(#paint0_linear_29_35)"/>
</g>
<path id="Fill 3_2" fill-rule="evenodd" clip-rule="evenodd" d="M17.7108 23.0697L19.7968 21.6401C20.4442 20.8849 20.8543 19.8796 21.2561 18.5541C21.8005 18.3456 22.3421 17.6569 22.5138 16.8899C22.6966 16.0622 22.6097 15.3677 22.2955 14.9816C23.1834 11.6168 23.047 8.74214 21.9158 7.23892C21.3207 6.44753 20.4552 6.02829 19.4124 6.02768C19.3163 5.9489 19.2532 5.86258 19.1738 5.75431C18.7666 5.19604 18.3327 4.79999 16.4472 4.79999L16.245 4.80118C13.98 4.80118 12.2628 5.48523 11.1414 6.83573C9.70304 8.56483 9.29555 11.3232 9.92622 15.038C9.6552 15.4261 9.57219 16.0768 9.71781 16.8486C9.8546 17.5695 10.3086 18.2228 10.8182 18.4913C11.3138 19.9373 11.8304 20.942 12.4234 21.6157C13.1536 22.5349 14.0267 22.5349 14.711 23.0697C15.3954 23.6045 17.2604 23.6045 17.7108 23.0697Z" fill="white"/>
</g>
</g>
</g>
<defs>
<linearGradient id="paint0_linear_29_35" x1="14.8" y1="13.6" x2="14.8" y2="33.6" gradientUnits="userSpaceOnUse">
<stop stop-color="#696D7F" stop-opacity="0.16"/>
<stop offset="1" stop-color="#696D7F" stop-opacity="0"/>
</linearGradient>
</defs>
</svg>
