<svg width="72" height="67" viewBox="0 0 72 67" fill="none" xmlns="http://www.w3.org/2000/svg">
<g id="Logo/NIO_icon">
<path id="Fill 1" fill-rule="evenodd" clip-rule="evenodd" d="M50.2555 29.5333C50.823 30.9317 50.9332 31.5575 51.4455 32.6502C51.8617 33.5376 52.348 34.1932 53.0052 34.6756C54.3509 35.6634 56.0521 35.6998 58.1101 35.6998H70.5918C70.5918 26.2441 66.9137 17.1747 60.3658 10.4883C53.8169 3.8018 44.9366 0.0446777 35.6769 0.0446777C26.4161 0.0446777 17.5358 3.8018 10.9869 10.4883C4.43908 17.1747 0.760925 26.2441 0.760925 35.6998H13.2427C15.3006 35.6998 17.0019 35.6634 18.3475 34.6756C19.0058 34.1932 19.4922 33.5376 19.9072 32.6502C20.4195 31.5575 20.5309 30.9317 21.0972 29.5333C23.54 23.5113 29.2934 19.5853 35.6769 19.5853C42.0594 19.5853 47.8128 23.5113 50.2555 29.5333Z" fill="black"/>
<path id="Fill 3" fill-rule="evenodd" clip-rule="evenodd" d="M66.8375 51.4904C63.9232 57.501 59.408 62.5462 53.8098 66.0436V66.0447C49.1536 61.2835 44.4984 56.5224 39.8411 51.7612C38.1897 50.0725 37.0689 49.0278 35.6769 49.0278C34.2838 49.0278 33.1631 50.0725 31.5116 51.7623C26.8554 56.5224 22.1992 61.2835 17.543 66.0447C11.9458 62.5462 7.4285 57.501 4.51527 51.4904C8.64396 47.2697 12.7726 43.048 16.9003 38.8273C18.1329 37.5658 19.0114 36.7038 20.2969 36.2073C21.5737 35.7153 22.9571 35.6998 24.9509 35.6998H46.4018C48.3956 35.6998 49.7801 35.7153 51.0569 36.2073C52.3424 36.7038 53.2198 37.5658 54.4525 38.8273C58.5812 43.048 62.7088 47.2697 66.8375 51.4904Z" fill="black"/>
</g>
</svg>
